<?xml version="1.0" encoding="UTF-8" standalone="no"?>
<!-- Created with Inkscape (http://www.inkscape.org/) -->

<svg
   version="1.1"
   id="svg1"
   width="1358.23"
   height="362.20398"
   viewBox="0 0 1358.2301 362.20397"
   sodipodi:docname="rc_logo_white.svg"
   inkscape:version="1.4.2 (f4327f4, 2025-05-13)"
   xmlns:inkscape="http://www.inkscape.org/namespaces/inkscape"
   xmlns:sodipodi="http://sodipodi.sourceforge.net/DTD/sodipodi-0.dtd"
   xmlns="http://www.w3.org/2000/svg"
   xmlns:svg="http://www.w3.org/2000/svg">
  <sodipodi:namedview
     id="namedview1"
     pagecolor="#ffffff"
     bordercolor="#000000"
     borderopacity="0.25"
     inkscape:showpageshadow="2"
     inkscape:pageopacity="0.0"
     inkscape:pagecheckerboard="0"
     inkscape:deskcolor="#d1d1d1"
     inkscape:zoom="1.4111822"
     inkscape:cx="740.15959"
     inkscape:cy="215.77654"
     inkscape:window-width="3440"
     inkscape:window-height="1369"
     inkscape:window-x="1912"
     inkscape:window-y="-8"
     inkscape:window-maximized="1"
     inkscape:current-layer="g1">
    <inkscape:page
       x="0"
       y="0"
       inkscape:label="1"
       id="page1"
       width="1358.2301"
       height="362.20398"
       margin="0"
       bleed="0" />
  </sodipodi:namedview>
  <defs
     id="defs1" />
  <g
     id="g1"
     inkscape:groupmode="layer"
     inkscape:label="1"
     transform="translate(-135.02666,-86.822663)">
    <path
       id="path2"
       d="m 596.945,205.738 h -5.976 l 7.511,-42.597 h 5.977 z m 18.059,-42.597 h 5.976 l -7.511,42.597 h -5.977 z m -3.609,36.914 h 24.464 l -1.004,5.683 h -24.46 z m 3.23,-18.313 h 21.238 l -1,5.684 h -21.242 z m 3.277,-18.601 h 24.465 l -1.004,5.683 h -24.461 z m 32.961,0 h 5.977 l -7.512,42.597 h -5.976 z m -3.609,36.914 h 24.465 l -1.004,5.683 h -24.461 z m 3.23,-18.313 h 21.239 l -1,5.684 H 649.48 Z m 3.278,-18.601 h 24.465 l -1.004,5.683 h -24.461 z m 32.961,0 h 5.976 l -7.511,42.597 h -5.977 z m -3.61,36.914 h 24.465 l -1.004,5.683 h -24.461 z m 3.231,-18.313 h 21.238 l -1,5.684 H 685.34 Z m 3.277,-18.601 h 24.465 l -1.004,5.683 h -24.461 z"
       style="fill:#ffffff;fill-opacity:1;fill-rule:nonzero;stroke:none"
       transform="scale(1.3333333)" />
    <path
       id="path3"
       d="m 587.191,241.957 h 14.825 c 0.82,0 1.578,-0.207 2.273,-0.617 0.699,-0.41 1.281,-0.996 1.746,-1.758 0.488,-0.762 0.828,-1.641 1.024,-2.637 0.175,-0.996 0.152,-1.875 -0.063,-2.636 -0.199,-0.762 -0.574,-1.348 -1.125,-1.758 -0.555,-0.41 -1.25,-0.617 -2.09,-0.617 h -14.824 l 1.363,-7.735 h 15.469 c 2.344,0 4.313,0.528 5.902,1.586 1.594,1.055 2.707,2.547 3.34,4.481 0.641,1.914 0.735,4.14 0.289,6.679 -0.449,2.539 -1.332,4.774 -2.648,6.711 -1.313,1.91 -2.961,3.395 -4.945,4.453 -1.965,1.055 -4.106,1.582 -6.43,1.582 h -15.469 z m -0.062,-17.758 h 8.027 l -7.519,42.629 h -8.028 z m 7.894,24.172 8.821,-1.348 7.992,19.805 h -9.727 z m 34.11,18.895 c -2.774,0 -5.055,-0.516 -6.844,-1.551 -1.773,-1.035 -3,-2.539 -3.687,-4.512 -0.664,-1.992 -0.75,-4.383 -0.258,-7.176 l 0.871,-4.953 c 0.488,-2.754 1.41,-5.109 2.769,-7.062 1.383,-1.973 3.141,-3.465 5.274,-4.481 2.156,-1.035 4.617,-1.551 7.39,-1.551 2.774,0 5.047,0.516 6.817,1.551 1.797,1.016 3.027,2.508 3.695,4.481 0.688,1.953 0.793,4.308 0.305,7.062 l -0.887,5.039 c -0.488,2.774 -1.426,5.145 -2.808,7.121 -1.36,1.954 -3.118,3.446 -5.274,4.481 -2.137,1.035 -4.59,1.551 -7.363,1.551 z m 1.336,-7.735 c 1.621,0 2.961,-0.465 4.027,-1.402 1.066,-0.957 1.75,-2.297 2.055,-4.016 l 0.887,-5.039 c 0.3,-1.699 0.082,-3.019 -0.649,-3.957 -0.734,-0.933 -1.91,-1.402 -3.531,-1.402 -1.602,0 -2.934,0.469 -4,1.402 -1.043,0.938 -1.715,2.258 -2.016,3.957 l -0.887,5.039 c -0.304,1.719 -0.101,3.059 0.61,4.016 0.715,0.937 1.883,1.402 3.504,1.402 z m 34.199,7.735 c -1.777,0 -3.23,-0.45 -4.359,-1.348 -1.129,-0.914 -1.86,-2.203 -2.192,-3.863 l 1.637,-6.946 c -0.176,0.996 -0.152,1.844 0.078,2.547 0.227,0.703 0.641,1.242 1.238,1.614 0.618,0.371 1.407,0.558 2.364,0.558 1.504,0 2.754,-0.5 3.75,-1.496 1.015,-0.996 1.683,-2.402 2.004,-4.219 l 0.851,-4.836 c 0.328,-1.851 0.16,-3.289 -0.5,-4.304 -0.637,-1.035 -1.711,-1.555 -3.215,-1.555 -0.957,0 -1.808,0.195 -2.562,0.59 -0.731,0.367 -1.332,0.914 -1.813,1.637 -0.48,0.722 -0.808,1.605 -0.992,2.64 l 0.574,-6.742 c 1.133,-1.777 2.449,-3.145 3.946,-4.098 1.519,-0.976 3.089,-1.465 4.711,-1.465 2.148,0 3.89,0.516 5.234,1.551 1.359,1.035 2.266,2.547 2.715,4.539 0.449,1.996 0.425,4.387 -0.067,7.18 l -0.855,4.863 c -0.488,2.774 -1.309,5.145 -2.457,7.121 -1.145,1.954 -2.582,3.446 -4.305,4.481 -1.707,1.035 -3.637,1.551 -5.785,1.551 z m -7.496,-43.036 h 8.027 l -7.511,42.598 h -8.028 z m 37.293,43.036 c -2.774,0 -5.055,-0.516 -6.844,-1.551 -1.773,-1.035 -3,-2.539 -3.687,-4.512 -0.664,-1.992 -0.75,-4.383 -0.258,-7.176 l 0.871,-4.953 c 0.488,-2.754 1.41,-5.109 2.769,-7.062 1.383,-1.973 3.141,-3.465 5.274,-4.481 2.152,-1.035 4.617,-1.551 7.39,-1.551 2.774,0 5.047,0.516 6.817,1.551 1.793,1.016 3.023,2.508 3.691,4.481 0.692,1.953 0.797,4.308 0.309,7.062 l -0.887,5.039 c -0.488,2.774 -1.426,5.145 -2.808,7.121 -1.36,1.954 -3.118,3.446 -5.274,4.481 -2.137,1.035 -4.59,1.551 -7.363,1.551 z m 1.332,-7.735 c 1.621,0 2.965,-0.465 4.027,-1.402 1.071,-0.957 1.754,-2.297 2.059,-4.016 l 0.887,-5.039 c 0.3,-1.699 0.082,-3.019 -0.649,-3.957 -0.734,-0.933 -1.91,-1.402 -3.531,-1.402 -1.602,0 -2.938,0.469 -4,1.402 -1.043,0.938 -1.715,2.258 -2.016,3.957 l -0.886,5.039 c -0.305,1.719 -0.102,3.059 0.609,4.016 0.715,0.937 1.879,1.402 3.5,1.402 z m 27.664,7.442 c -2.656,0 -4.488,-0.672 -5.504,-2.02 -0.988,-1.367 -1.25,-3.379 -0.781,-6.035 l 5.527,-31.348 h 8.027 l -5.175,29.356 c -0.129,0.742 -0.086,1.32 0.136,1.73 0.223,0.387 0.618,0.582 1.184,0.582 h 1.992 l -1.363,7.735 z m -5.453,-30.555 h 14.883 l -1.207,6.855 h -14.883 z m 47.707,30.848 c -3.242,0 -5.906,-0.614 -7.996,-1.844 -2.082,-1.25 -3.524,-3.055 -4.317,-5.418 -0.793,-2.383 -0.89,-5.254 -0.297,-8.613 l 2.059,-11.692 c 0.594,-3.359 1.703,-6.219 3.332,-8.582 1.629,-2.383 3.707,-4.199 6.234,-5.449 2.524,-1.25 5.407,-1.875 8.649,-1.875 2.676,0 4.969,0.574 6.875,1.727 1.906,1.152 3.348,2.832 4.324,5.039 1.004,2.187 1.492,4.836 1.473,7.941 h -8.321 c -0.066,-1.41 -0.339,-2.609 -0.828,-3.605 -0.468,-0.997 -1.129,-1.758 -1.972,-2.286 -0.825,-0.527 -1.813,-0.789 -2.965,-0.789 -1.504,0 -2.84,0.313 -4.004,0.934 -1.16,0.605 -2.129,1.508 -2.906,2.699 -0.754,1.172 -1.278,2.586 -1.571,4.246 l -2.058,11.692 c -0.293,1.66 -0.27,3.074 0.07,4.246 0.359,1.172 1.012,2.07 1.957,2.695 0.945,0.606 2.172,0.906 3.676,0.906 1.172,0 2.273,-0.254 3.301,-0.758 1.027,-0.527 1.953,-1.289 2.773,-2.285 0.82,-1 1.504,-2.211 2.047,-3.633 h 8.32 c -1.093,3.106 -2.527,5.762 -4.304,7.969 -1.754,2.188 -3.786,3.856 -6.098,5.008 -2.293,1.152 -4.777,1.727 -7.453,1.727 z m 34.246,0 c -2.773,0 -5.055,-0.516 -6.844,-1.551 -1.769,-1.035 -3,-2.539 -3.687,-4.512 -0.664,-1.992 -0.75,-4.383 -0.258,-7.176 l 0.875,-4.953 c 0.484,-2.754 1.406,-5.109 2.765,-7.062 1.383,-1.973 3.141,-3.465 5.274,-4.481 2.156,-1.035 4.621,-1.551 7.394,-1.551 2.774,0 5.043,0.516 6.817,1.551 1.793,1.016 3.023,2.508 3.691,4.481 0.692,1.953 0.793,4.308 0.309,7.062 l -0.891,5.039 c -0.488,2.774 -1.426,5.145 -2.808,7.121 -1.36,1.954 -3.118,3.446 -5.274,4.481 -2.133,1.035 -4.59,1.551 -7.363,1.551 z m 1.336,-7.735 c 1.621,0 2.965,-0.465 4.027,-1.402 1.067,-0.957 1.75,-2.297 2.055,-4.016 l 0.887,-5.039 c 0.3,-1.699 0.086,-3.019 -0.649,-3.957 -0.734,-0.933 -1.91,-1.402 -3.531,-1.402 -1.602,0 -2.934,0.469 -3.996,1.402 -1.047,0.938 -1.719,2.258 -2.02,3.957 l -0.886,5.039 c -0.305,1.719 -0.098,3.059 0.609,4.016 0.715,0.937 1.883,1.402 3.504,1.402 z m 24.555,-23.113 h 8.027 l -5.363,30.41 h -8.028 z m 15.464,11.98 c 0.262,-1.484 0.036,-2.636 -0.679,-3.457 -0.696,-0.816 -1.825,-1.226 -3.387,-1.226 -1.484,0 -2.711,0.418 -3.68,1.258 -0.945,0.82 -1.55,1.984 -1.816,3.488 l 0.574,-6.742 c 1.254,-1.91 2.602,-3.348 4.039,-4.305 1.457,-0.957 3.156,-1.434 5.09,-1.434 3.203,0 5.492,1.082 6.867,3.25 1.379,2.149 1.719,5.196 1.024,9.141 l -3.254,18.457 h -8.028 z m 21.157,18.575 c -2.657,0 -4.489,-0.672 -5.5,-2.02 -0.993,-1.367 -1.25,-3.379 -0.782,-6.035 l 5.528,-31.348 h 8.027 l -5.176,29.356 c -0.132,0.742 -0.086,1.32 0.133,1.73 0.223,0.387 0.621,0.582 1.188,0.582 h 1.992 l -1.367,7.735 z m -5.45,-30.555 h 14.883 l -1.211,6.855 h -14.883 z m 21.915,0 h 8.613 l -5.363,30.41 h -8.614 z m 15.617,8.469 c -0.325,-0.395 -0.75,-0.688 -1.282,-0.879 -0.531,-0.196 -1.171,-0.293 -1.914,-0.293 -1.621,0 -2.972,0.523 -4.054,1.578 -1.063,1.039 -1.758,2.484 -2.086,4.336 l 0.781,-7.91 c 1.16,-1.817 2.492,-3.219 3.996,-4.215 1.527,-1.016 3.09,-1.524 4.692,-1.524 1.269,0 2.374,0.204 3.32,0.614 0.965,0.39 1.762,0.976 2.383,1.758 z m 16.207,22.379 c -2.774,0 -5.055,-0.516 -6.844,-1.551 -1.77,-1.035 -3,-2.539 -3.688,-4.512 -0.664,-1.992 -0.75,-4.383 -0.257,-7.176 l 0.871,-4.953 c 0.488,-2.754 1.41,-5.109 2.769,-7.062 1.383,-1.973 3.141,-3.465 5.274,-4.481 2.156,-1.035 4.621,-1.551 7.394,-1.551 2.774,0 5.043,0.516 6.813,1.551 1.797,1.016 3.027,2.508 3.695,4.481 0.691,1.953 0.793,4.308 0.305,7.062 l -0.887,5.039 c -0.488,2.774 -1.426,5.145 -2.809,7.121 -1.359,1.954 -3.117,3.446 -5.273,4.481 -2.133,1.035 -4.59,1.551 -7.363,1.551 z m 1.336,-7.735 c 1.621,0 2.961,-0.465 4.027,-1.402 1.066,-0.957 1.75,-2.297 2.055,-4.016 l 0.886,-5.039 c 0.301,-1.699 0.086,-3.019 -0.648,-3.957 -0.734,-0.933 -1.91,-1.402 -3.531,-1.402 -1.602,0 -2.934,0.469 -4,1.402 -1.043,0.938 -1.715,2.258 -2.016,3.957 l -0.887,5.039 c -0.304,1.719 -0.101,3.059 0.61,4.016 0.715,0.937 1.883,1.402 3.504,1.402 z m 28.992,-2.754 c -0.133,0.746 -0.028,1.321 0.308,1.731 0.36,0.39 0.934,0.586 1.715,0.586 h 1.348 l -1.367,7.734 h -4.102 c -2.441,0 -4.211,-0.703 -5.308,-2.109 -1.102,-1.407 -1.426,-3.387 -0.973,-5.946 l 6.09,-34.543 h 8.027 z"
       style="fill:#ffffff;fill-opacity:1;fill-rule:nonzero;stroke:none"
       transform="scale(1.3333333)" />
    <path
       id="path4"
       d="m 582.504,288.809 h 5.976 l -6.898,39.109 h -5.977 z m -11.426,-3.489 h 30.059 l -1.004,5.688 h -30.059 z m 35.797,43.039 c -2.813,0 -5.121,-0.527 -6.926,-1.582 -1.808,-1.054 -3.058,-2.597 -3.754,-4.629 -0.675,-2.05 -0.757,-4.523 -0.246,-7.41 l 0.606,-3.429 c 0.527,-3.008 1.48,-5.579 2.851,-7.707 1.391,-2.129 3.141,-3.747 5.25,-4.86 2.114,-1.117 4.516,-1.672 7.211,-1.672 2.539,0 4.594,0.633 6.168,1.903 1.574,1.273 2.617,3.109 3.129,5.507 0.535,2.407 0.504,5.286 -0.086,8.645 l -0.351,1.992 h -20.508 l 0.847,-4.805 h 14.825 c 0.261,-2.48 -0.047,-4.406 -0.918,-5.773 -0.848,-1.387 -2.203,-2.078 -4.059,-2.078 -2.266,0 -4.152,0.742 -5.664,2.227 -1.492,1.484 -2.477,3.585 -2.957,6.296 l -0.68,3.868 c -0.445,2.519 -0.121,4.453 0.969,5.8 1.09,1.348 2.856,2.024 5.297,2.024 1.211,0 2.457,-0.246 3.734,-0.731 1.278,-0.492 2.461,-1.175 3.555,-2.05 l 3.23,3.925 c -1.757,1.442 -3.644,2.567 -5.66,3.368 -2.011,0.781 -3.968,1.171 -5.863,1.171 z m 31.992,0 c -2.773,0 -5.055,-0.515 -6.844,-1.554 -1.769,-1.035 -3,-2.539 -3.687,-4.508 -0.688,-1.977 -0.785,-4.359 -0.293,-7.152 l 0.887,-5.008 c 0.484,-2.754 1.418,-5.11 2.797,-7.063 1.378,-1.949 3.132,-3.437 5.265,-4.453 2.156,-1.035 4.621,-1.551 7.395,-1.551 1.582,0 3.031,0.196 4.347,0.586 1.344,0.371 2.504,0.918 3.493,1.641 0.984,0.723 1.757,1.601 2.316,2.637 l -4.988,3.867 c -0.688,-0.977 -1.559,-1.727 -2.617,-2.254 -1.063,-0.531 -2.215,-0.793 -3.465,-0.793 -2.305,0 -4.207,0.644 -5.703,1.934 -1.497,1.289 -2.454,3.105 -2.864,5.449 l -0.886,5.008 c -0.422,2.406 -0.125,4.261 0.894,5.57 1.039,1.305 2.723,1.961 5.047,1.961 1.269,0 2.527,-0.285 3.781,-0.852 1.25,-0.562 2.391,-1.363 3.41,-2.402 l 3.575,4.16 c -0.942,1.016 -2.032,1.887 -3.274,2.609 -1.234,0.704 -2.59,1.239 -4.062,1.614 -1.453,0.371 -2.961,0.554 -4.524,0.554 z m 25.199,-43.039 h 5.977 l -7.512,42.598 h -5.976 z m 14.196,24.172 c 0.379,-2.148 0.113,-3.808 -0.793,-4.98 -0.907,-1.172 -2.367,-1.758 -4.379,-1.758 -1.953,0 -3.555,0.508 -4.809,1.523 -1.234,1.016 -2.015,2.45 -2.34,4.305 l 0.418,-5.855 c 1.254,-1.801 2.719,-3.188 4.395,-4.161 1.699,-1 3.465,-1.496 5.301,-1.496 3.3,0 5.66,1.082 7.074,3.254 1.437,2.149 1.809,5.196 1.113,9.137 l -3.254,18.457 h -5.976 z m 17.172,-11.984 h 5.976 l -5.363,30.41 h -5.977 z m 16.343,11.984 c 0.379,-2.148 0.114,-3.808 -0.793,-4.98 -0.906,-1.172 -2.367,-1.758 -4.379,-1.758 -1.953,0 -3.558,0.516 -4.812,1.551 -1.238,1.039 -2.023,2.492 -2.352,4.367 l 0.418,-5.86 c 1.262,-1.835 2.731,-3.25 4.411,-4.246 1.699,-1 3.464,-1.496 5.3,-1.496 3.301,0 5.66,1.082 7.075,3.254 1.437,2.149 1.808,5.196 1.113,9.137 l -3.254,18.457 h -5.977 z m 19.321,-24.172 h 5.976 l -1.054,5.977 h -5.977 z m -2.149,12.188 h 5.977 l -5.364,30.41 h -5.976 z m 21.891,30.851 c -2.774,0 -5.055,-0.515 -6.844,-1.554 -1.769,-1.035 -3,-2.539 -3.687,-4.508 -0.688,-1.977 -0.786,-4.359 -0.293,-7.152 l 0.886,-5.008 c 0.485,-2.754 1.418,-5.11 2.797,-7.063 1.379,-1.949 3.133,-3.437 5.266,-4.453 2.156,-1.035 4.621,-1.551 7.394,-1.551 1.582,0 3.032,0.196 4.348,0.586 1.344,0.371 2.504,0.918 3.492,1.641 0.985,0.723 1.758,1.601 2.317,2.637 l -4.989,3.867 c -0.687,-0.977 -1.558,-1.727 -2.617,-2.254 -1.062,-0.531 -2.215,-0.793 -3.465,-0.793 -2.304,0 -4.207,0.644 -5.703,1.934 -1.496,1.289 -2.453,3.105 -2.863,5.449 l -0.887,5.008 c -0.422,2.406 -0.125,4.261 0.895,5.57 1.039,1.305 2.722,1.961 5.047,1.961 1.269,0 2.527,-0.285 3.781,-0.852 1.25,-0.562 2.39,-1.363 3.41,-2.402 l 3.574,4.16 c -0.941,1.016 -2.031,1.887 -3.273,2.609 -1.235,0.704 -2.59,1.239 -4.063,1.614 -1.453,0.371 -2.961,0.554 -4.523,0.554 z m 38.254,-19.718 c 0.351,-1.993 0.086,-3.536 -0.797,-4.629 -0.856,-1.114 -2.262,-1.668 -4.215,-1.668 -1.211,0 -2.437,0.183 -3.672,0.558 -1.219,0.371 -2.336,0.887 -3.351,1.551 l -3.84,-2.988 c 1.398,-1.387 3.101,-2.461 5.109,-3.223 2.035,-0.781 4.203,-1.172 6.508,-1.172 2.519,0 4.598,0.45 6.238,1.348 1.641,0.879 2.781,2.168 3.418,3.867 0.641,1.68 0.75,3.711 0.332,6.094 l -3.445,19.539 h -5.684 z m -10.918,19.718 c -3.75,0 -6.418,-0.769 -8,-2.312 -1.582,-1.563 -2.09,-3.93 -1.535,-7.094 0.531,-3.008 1.781,-5.262 3.742,-6.765 1.965,-1.504 4.668,-2.254 8.105,-2.254 h 8.641 l -0.438,4.804 h -9.023 c -1.563,0 -2.797,0.352 -3.699,1.051 -0.883,0.684 -1.449,1.738 -1.703,3.164 -0.27,1.543 0.035,2.688 0.922,3.43 0.902,0.742 2.398,1.113 4.488,1.113 2.285,0 4.031,-0.246 5.23,-0.734 1.219,-0.489 1.918,-1.25 2.102,-2.285 l -0.141,4.277 c -0.672,0.82 -1.445,1.496 -2.32,2.023 -0.852,0.528 -1.813,0.918 -2.871,1.172 -1.063,0.274 -2.231,0.41 -3.5,0.41 z m 29.644,-8.289 c -0.129,0.739 -0.074,1.317 0.164,1.727 0.266,0.391 0.688,0.586 1.274,0.586 h 2.812 l -1,5.683 h -3.515 c -2.266,0 -3.903,-0.703 -4.903,-2.109 -0.984,-1.406 -1.25,-3.391 -0.797,-5.949 l 6.118,-34.688 h 5.976 z m 40.578,8.289 c -2.949,0 -5.429,-0.652 -7.445,-1.961 -1.996,-1.308 -3.398,-3.168 -4.203,-5.57 -0.809,-2.402 -0.934,-5.183 -0.375,-8.348 l 2.063,-11.687 c 0.558,-3.164 1.664,-5.949 3.316,-8.352 1.656,-2.402 3.711,-4.257 6.168,-5.566 2.48,-1.328 5.195,-1.992 8.144,-1.992 2.442,0 4.594,0.527 6.461,1.582 1.868,1.035 3.317,2.508 4.344,4.422 1.051,1.918 1.598,4.133 1.641,6.652 h -6.121 c -0.137,-1.328 -0.555,-2.508 -1.25,-3.547 -0.676,-1.054 -1.547,-1.863 -2.621,-2.43 -1.071,-0.566 -2.231,-0.851 -3.481,-0.851 -1.738,0 -3.336,0.422 -4.793,1.262 -1.457,0.839 -2.68,2.023 -3.672,3.543 -0.988,1.504 -1.66,3.261 -2.015,5.277 L 842.5,312.48 c -0.352,1.993 -0.301,3.75 0.152,5.274 0.453,1.523 1.262,2.703 2.422,3.543 1.164,0.82 2.617,1.23 4.356,1.23 1.269,0 2.527,-0.261 3.769,-0.789 1.266,-0.527 2.418,-1.308 3.461,-2.343 1.063,-1.036 1.902,-2.266 2.528,-3.692 h 6.121 c -0.93,2.52 -2.262,4.735 -3.985,6.649 -1.722,1.914 -3.703,3.398 -5.941,4.453 -2.235,1.039 -4.563,1.554 -6.985,1.554 z m 34.25,0 c -2.636,0 -4.8,-0.515 -6.492,-1.554 -1.695,-1.035 -2.863,-2.539 -3.511,-4.508 -0.625,-1.996 -0.692,-4.387 -0.2,-7.18 l 0.871,-4.953 c 0.485,-2.75 1.391,-5.105 2.711,-7.059 1.344,-1.972 3.043,-3.468 5.098,-4.484 2.055,-1.035 4.402,-1.551 7.039,-1.551 2.637,0 4.801,0.516 6.496,1.551 1.695,1.016 2.856,2.512 3.485,4.484 0.652,1.954 0.734,4.309 0.25,7.059 l -0.887,5.039 c -0.492,2.774 -1.406,5.149 -2.75,7.121 -1.32,1.953 -3.012,3.446 -5.067,4.481 -2.058,1.039 -4.406,1.554 -7.043,1.554 z m 1,-5.683 c 2.094,0 3.821,-0.656 5.184,-1.961 1.383,-1.309 2.281,-3.149 2.699,-5.512 l 0.887,-5.039 c 0.418,-2.363 0.164,-4.187 -0.762,-5.476 -0.906,-1.29 -2.402,-1.934 -4.492,-1.934 -2.09,0 -3.824,0.644 -5.207,1.934 -1.359,1.289 -2.246,3.113 -2.664,5.476 l -0.887,5.039 c -0.418,2.363 -0.176,4.203 0.727,5.512 0.922,1.305 2.429,1.961 4.515,1.961 z m 59.692,-13.184 c 0.379,-2.148 0.113,-3.808 -0.793,-4.98 -0.906,-1.172 -2.367,-1.758 -4.379,-1.758 -1.856,0 -3.391,0.566 -4.606,1.699 -1.214,1.133 -2.003,2.735 -2.371,4.805 l -0.168,-5.86 c 1.313,-2.011 2.848,-3.566 4.602,-4.656 1.777,-1.117 3.613,-1.672 5.508,-1.672 2.187,0 3.969,0.489 5.34,1.465 1.39,0.957 2.324,2.363 2.8,4.219 0.493,1.855 0.508,4.09 0.047,6.707 l -3.254,18.457 h -5.976 z m -34.219,-11.984 h 5.977 l -5.36,30.41 h -5.976 z m 16.055,11.984 c 0.379,-2.148 0.14,-3.808 -0.707,-4.98 -0.848,-1.172 -2.239,-1.758 -4.172,-1.758 -1.953,0 -3.559,0.516 -4.813,1.551 -1.238,1.039 -2.023,2.492 -2.351,4.367 l 0.418,-5.86 c 1.258,-1.835 2.73,-3.25 4.41,-4.246 1.699,-1 3.465,-1.496 5.301,-1.496 2.129,0 3.859,0.489 5.191,1.465 1.336,0.957 2.231,2.363 2.684,4.219 0.476,1.855 0.48,4.09 0.019,6.707 l -3.254,18.457 h -5.976 z m 69.551,0 c 0.378,-2.148 0.113,-3.808 -0.793,-4.98 -0.907,-1.172 -2.368,-1.758 -4.379,-1.758 -1.856,0 -3.391,0.566 -4.606,1.699 -1.215,1.133 -2.004,2.735 -2.371,4.805 l -0.168,-5.86 c 1.313,-2.011 2.848,-3.566 4.602,-4.656 1.777,-1.117 3.613,-1.672 5.508,-1.672 2.187,0 3.968,0.489 5.339,1.465 1.391,0.957 2.325,2.363 2.801,4.219 0.492,1.855 0.508,4.09 0.047,6.707 l -3.254,18.457 h -5.976 z m -34.215,-11.984 h 5.976 l -5.363,30.41 h -5.977 z m 16.05,11.984 c 0.379,-2.148 0.141,-3.808 -0.707,-4.98 -0.847,-1.172 -2.238,-1.758 -4.171,-1.758 -1.954,0 -3.559,0.516 -4.813,1.551 -1.238,1.039 -2.023,2.492 -2.351,4.367 l 0.418,-5.86 c 1.257,-1.835 2.73,-3.25 4.41,-4.246 1.699,-1 3.464,-1.496 5.3,-1.496 2.129,0 3.86,0.489 5.192,1.465 1.336,0.957 2.23,2.363 2.683,4.219 0.477,1.855 0.481,4.09 0.02,6.707 l -3.254,18.457 h -5.977 z m 37.485,-24.172 h 5.976 l -1.054,5.977 h -5.977 z m -2.152,12.188 h 5.976 l -5.359,30.41 h -5.977 z m 17.582,30.558 c -2.461,0 -4.149,-0.671 -5.063,-2.019 -0.891,-1.367 -1.105,-3.383 -0.637,-6.039 l 5.528,-31.348 h 5.976 l -5.535,31.41 c -0.133,0.739 -0.086,1.317 0.133,1.727 0.223,0.391 0.621,0.586 1.187,0.586 h 2.872 l -1.004,5.683 z m -4.868,-30.558 h 13.711 l -0.949,5.394 h -13.711 z m 24.438,30.558 c -2.461,0 -4.149,-0.671 -5.063,-2.019 -0.89,-1.367 -1.105,-3.383 -0.636,-6.039 l 5.527,-31.348 h 5.977 l -5.536,31.41 c -0.132,0.739 -0.086,1.317 0.133,1.727 0.223,0.391 0.621,0.586 1.188,0.586 h 2.871 l -1.004,5.683 z m -4.867,-30.558 h 13.711 l -0.95,5.394 h -13.711 z m 28.925,30.851 c -2.812,0 -5.121,-0.527 -6.925,-1.582 -1.809,-1.054 -3.059,-2.597 -3.754,-4.629 -0.676,-2.05 -0.758,-4.523 -0.246,-7.41 l 0.605,-3.429 c 0.527,-3.008 1.481,-5.579 2.852,-7.707 1.39,-2.129 3.14,-3.747 5.25,-4.86 2.113,-1.117 4.515,-1.672 7.211,-1.672 2.539,0 4.593,0.633 6.168,1.903 1.57,1.273 2.617,3.109 3.129,5.507 0.535,2.407 0.503,5.286 -0.086,8.645 l -0.352,1.992 h -20.508 l 0.848,-4.805 h 14.824 c 0.262,-2.48 -0.047,-4.406 -0.918,-5.773 -0.848,-1.387 -2.203,-2.078 -4.058,-2.078 -2.266,0 -4.153,0.742 -5.665,2.227 -1.492,1.484 -2.476,3.585 -2.957,6.296 l -0.679,3.868 c -0.446,2.519 -0.121,4.453 0.968,5.8 1.09,1.348 2.856,2.024 5.297,2.024 1.211,0 2.453,-0.246 3.731,-0.731 1.281,-0.492 2.465,-1.175 3.558,-2.05 l 3.231,3.925 c -1.758,1.442 -3.645,2.567 -5.66,3.368 -2.012,0.781 -3.969,1.171 -5.864,1.171 z m 32.168,0 c -2.812,0 -5.121,-0.527 -6.925,-1.582 -1.809,-1.054 -3.059,-2.597 -3.754,-4.629 -0.676,-2.05 -0.758,-4.523 -0.246,-7.41 l 0.605,-3.429 c 0.527,-3.008 1.481,-5.579 2.852,-7.707 1.39,-2.129 3.14,-3.747 5.25,-4.86 2.113,-1.117 4.515,-1.672 7.211,-1.672 2.539,0 4.593,0.633 6.168,1.903 1.57,1.273 2.617,3.109 3.128,5.507 0.536,2.407 0.504,5.286 -0.085,8.645 l -0.352,1.992 h -20.508 l 0.848,-4.805 h 14.824 c 0.262,-2.48 -0.047,-4.406 -0.918,-5.773 -0.848,-1.387 -2.203,-2.078 -4.059,-2.078 -2.265,0 -4.152,0.742 -5.664,2.227 -1.492,1.484 -2.476,3.585 -2.957,6.296 l -0.679,3.868 c -0.446,2.519 -0.121,4.453 0.968,5.8 1.09,1.348 2.856,2.024 5.297,2.024 1.211,0 2.453,-0.246 3.735,-0.731 1.277,-0.492 2.461,-1.175 3.554,-2.05 l 3.231,3.925 c -1.758,1.442 -3.645,2.567 -5.66,3.368 -2.012,0.781 -3.969,1.171 -5.864,1.171 z"
       style="fill:#ffffff;fill-opacity:1;fill-rule:nonzero;stroke:none"
       transform="scale(1.3333333)" />
    <path
       id="path5"
       d="m 348.836,159.258 c 10.094,1.297 87.664,7.672 137.871,46.273 -14.543,-1.418 -25.531,-1.203 -36.402,0.379 69.054,45.86 5.453,112.543 -94.688,128.547 26.524,-18.598 38.086,-46.348 41.504,-62.672 17.91,15.434 30.32,-2.535 31.137,-21.277 0.863,-19.852 -10.895,-41.34 -31.07,-24.926 -4.555,-31.316 -24.18,-54.785 -48.352,-66.324 z"
       style="fill:#ffffff;fill-opacity:1;fill-rule:nonzero;stroke:none"
       transform="scale(1.3333333)" />
    <path
       id="path6"
       d="m 239.141,336.77 c -10.094,-1.297 -87.664,-7.672 -137.871,-46.274 14.539,1.418 25.531,1.203 36.402,-0.379 -69.055,-45.859 -5.453,-112.543 94.687,-128.547 -26.523,18.598 -38.086,46.348 -41.504,62.672 -17.91,-15.433 -30.32,2.535 -31.136,21.278 -0.864,19.855 10.894,41.339 31.07,24.925 4.551,31.317 24.18,54.785 48.352,66.325 z"
       style="fill:#ffffff;fill-opacity:1;fill-rule:nonzero;stroke:none"
       transform="scale(1.3333333)" />
    <path
       id="path7"
       d="M 293.715,150.773 V 94.652"
       style="fill:none;stroke:#ffffff;stroke-width:6.26032;stroke-linecap:butt;stroke-linejoin:miter;stroke-miterlimit:4;stroke-dasharray:none;stroke-opacity:1"
       transform="scale(1.3333333)" />
    <path
       id="path8"
       style="fill:#ffffff;fill-opacity:1;fill-rule:nonzero;stroke:none"
       d="m 292.54688,194.21924 c -41.582,0 -76.70348,16.78407 -76.43848,53.14307 0.121,16.754 5.70106,30.64512 22.18506,35.26612 11.82,3.312 28.53442,-3.55811 54.25342,-3.55811 24.805,0 42.99189,6.10914 54.73389,2.14014 16.864,-5.703 23.65283,-18.18415 23.65283,-33.84815 0,-38.988 -38.68372,-53.14307 -78.38672,-53.14307 z m -32.66015,33.01905 c 4.879,0 9.56174,1.94162 13.01074,5.39062 3.454,3.453 5.39209,8.1336 5.39209,13.0166 0,10.164 -8.23883,18.40137 -18.40283,18.40137 -10.164,0 -18.40723,-8.23737 -18.40723,-18.40137 0,-4.883 1.94309,-9.5636 5.39209,-13.0166 3.453,-3.449 8.13214,-5.39062 13.01514,-5.39062 z m 67.26855,0 c 4.879,0 9.56321,1.94162 13.01221,5.39062 3.453,3.453 5.39209,8.1336 5.39209,13.0166 0,10.164 -8.2403,18.40137 -18.4043,18.40137 -10.164,0 -18.40576,-8.23737 -18.40576,-18.40137 0,-4.883 1.94209,-9.5636 5.39209,-13.0166 3.453,-3.449 8.13067,-5.39062 13.01367,-5.39062 z"
       transform="scale(1.3333333)" />
    <path
       id="path11"
       d="m 275.289,83.543 c 0,10.176 8.25,18.426 18.426,18.426 10.176,0 18.426,-8.25 18.426,-18.426 0,-10.176 -8.25,-18.426 -18.426,-18.426 -10.176,0 -18.426,8.25 -18.426,18.426 z"
       style="fill:#ffffff;fill-opacity:1;fill-rule:nonzero;stroke:none"
       transform="scale(1.3333333)" />
  </g>
</svg>
